<mxfile host="app.diagrams.net" modified="2023-07-03T15:45:26.249Z" agent="Mozilla/5.0 (Windows NT 10.0; Win64; x64; rv:109.0) Gecko/20100101 Firefox/114.0" etag="7jRparCLYlELnLW0rs4Q" version="21.5.2" type="github">
  <diagram name="Page-1" id="SZSXIYg2R4I41gSRvDuy">
    <mxGraphModel dx="1775" dy="2729" grid="1" gridSize="10" guides="1" tooltips="1" connect="1" arrows="1" fold="1" page="1" pageScale="1" pageWidth="850" pageHeight="1100" math="0" shadow="0">
      <root>
        <mxCell id="0" />
        <mxCell id="1" parent="0" />
        <mxCell id="SHHEqdREplzzyGLVImKM-2" value="AbstractAlgorithm" style="ellipse;shape=cloud;whiteSpace=wrap;html=1;" vertex="1" parent="1">
          <mxGeometry x="310" y="40" width="160" height="80" as="geometry" />
        </mxCell>
        <mxCell id="SHHEqdREplzzyGLVImKM-7" value="" style="endArrow=none;html=1;rounded=0;" edge="1" parent="1" source="SHHEqdREplzzyGLVImKM-14" target="SHHEqdREplzzyGLVImKM-2">
          <mxGeometry width="50" height="50" relative="1" as="geometry">
            <mxPoint x="245.9375" y="230" as="sourcePoint" />
            <mxPoint x="370" y="100" as="targetPoint" />
          </mxGeometry>
        </mxCell>
        <mxCell id="SHHEqdREplzzyGLVImKM-10" value="" style="endArrow=classic;html=1;rounded=0;" edge="1" parent="1" source="SHHEqdREplzzyGLVImKM-23" target="SHHEqdREplzzyGLVImKM-14">
          <mxGeometry width="50" height="50" relative="1" as="geometry">
            <mxPoint x="99" y="99.03999999999996" as="sourcePoint" />
            <mxPoint x="179" y="214" as="targetPoint" />
          </mxGeometry>
        </mxCell>
        <mxCell id="SHHEqdREplzzyGLVImKM-11" value="&lt;div&gt;Compressed Data&lt;/div&gt;" style="ellipse;whiteSpace=wrap;html=1;" vertex="1" parent="1">
          <mxGeometry x="170" y="400" width="120" height="80" as="geometry" />
        </mxCell>
        <mxCell id="SHHEqdREplzzyGLVImKM-12" value="" style="endArrow=classic;html=1;rounded=0;entryX=0.417;entryY=0.038;entryDx=0;entryDy=0;entryPerimeter=0;" edge="1" parent="1" source="SHHEqdREplzzyGLVImKM-14" target="SHHEqdREplzzyGLVImKM-11">
          <mxGeometry width="50" height="50" relative="1" as="geometry">
            <mxPoint x="216.05704697986585" y="290" as="sourcePoint" />
            <mxPoint x="450" y="280" as="targetPoint" />
          </mxGeometry>
        </mxCell>
        <mxCell id="SHHEqdREplzzyGLVImKM-13" value="" style="endArrow=none;html=1;rounded=0;exitX=0.675;exitY=0.938;exitDx=0;exitDy=0;exitPerimeter=0;" edge="1" parent="1" source="SHHEqdREplzzyGLVImKM-2" target="SHHEqdREplzzyGLVImKM-16">
          <mxGeometry width="50" height="50" relative="1" as="geometry">
            <mxPoint x="400" y="330" as="sourcePoint" />
            <mxPoint x="502.5" y="230" as="targetPoint" />
          </mxGeometry>
        </mxCell>
        <mxCell id="SHHEqdREplzzyGLVImKM-14" value="&lt;div&gt;.compress()&lt;/div&gt;" style="shape=hexagon;perimeter=hexagonPerimeter2;whiteSpace=wrap;html=1;fixedSize=1;" vertex="1" parent="1">
          <mxGeometry x="110" y="220" width="160" height="80" as="geometry" />
        </mxCell>
        <mxCell id="SHHEqdREplzzyGLVImKM-16" value=".decompress()" style="shape=hexagon;perimeter=hexagonPerimeter2;whiteSpace=wrap;html=1;fixedSize=1;" vertex="1" parent="1">
          <mxGeometry x="400" y="230" width="170" height="80" as="geometry" />
        </mxCell>
        <mxCell id="SHHEqdREplzzyGLVImKM-18" value="" style="endArrow=classic;html=1;rounded=0;exitX=0.5;exitY=1;exitDx=0;exitDy=0;entryX=0.5;entryY=0;entryDx=0;entryDy=0;" edge="1" parent="1" source="SHHEqdREplzzyGLVImKM-16" target="SHHEqdREplzzyGLVImKM-22">
          <mxGeometry width="50" height="50" relative="1" as="geometry">
            <mxPoint x="400" y="330" as="sourcePoint" />
            <mxPoint x="530" y="410" as="targetPoint" />
          </mxGeometry>
        </mxCell>
        <mxCell id="SHHEqdREplzzyGLVImKM-20" value="&lt;div&gt;Compressed Data&lt;/div&gt;" style="ellipse;whiteSpace=wrap;html=1;" vertex="1" parent="1">
          <mxGeometry x="610" y="80" width="120" height="80" as="geometry" />
        </mxCell>
        <mxCell id="SHHEqdREplzzyGLVImKM-21" value="" style="endArrow=classic;html=1;rounded=0;" edge="1" parent="1" source="SHHEqdREplzzyGLVImKM-20" target="SHHEqdREplzzyGLVImKM-16">
          <mxGeometry width="50" height="50" relative="1" as="geometry">
            <mxPoint x="400" y="330" as="sourcePoint" />
            <mxPoint x="450" y="280" as="targetPoint" />
          </mxGeometry>
        </mxCell>
        <mxCell id="SHHEqdREplzzyGLVImKM-22" value="&lt;div&gt;Decompressed Data&lt;/div&gt;" style="ellipse;whiteSpace=wrap;html=1;" vertex="1" parent="1">
          <mxGeometry x="460" y="420" width="140" height="80" as="geometry" />
        </mxCell>
        <mxCell id="SHHEqdREplzzyGLVImKM-23" value="Data" style="ellipse;whiteSpace=wrap;html=1;" vertex="1" parent="1">
          <mxGeometry x="10" y="20" width="140" height="80" as="geometry" />
        </mxCell>
        <mxCell id="SHHEqdREplzzyGLVImKM-24" value="" style="shape=flexArrow;endArrow=classic;html=1;rounded=0;" edge="1" parent="1" target="SHHEqdREplzzyGLVImKM-25">
          <mxGeometry width="50" height="50" relative="1" as="geometry">
            <mxPoint x="400" y="60" as="sourcePoint" />
            <mxPoint x="380" y="-330" as="targetPoint" />
          </mxGeometry>
        </mxCell>
        <mxCell id="SHHEqdREplzzyGLVImKM-25" value="&lt;div&gt;Algorithm_1&lt;/div&gt;" style="rounded=1;whiteSpace=wrap;html=1;" vertex="1" parent="1">
          <mxGeometry x="260" y="-430" width="120" height="60" as="geometry" />
        </mxCell>
        <mxCell id="SHHEqdREplzzyGLVImKM-26" value="" style="endArrow=classic;html=1;rounded=0;" edge="1" parent="1" source="SHHEqdREplzzyGLVImKM-25" target="SHHEqdREplzzyGLVImKM-27">
          <mxGeometry width="50" height="50" relative="1" as="geometry">
            <mxPoint x="400" y="-420" as="sourcePoint" />
            <mxPoint x="460" y="-660" as="targetPoint" />
          </mxGeometry>
        </mxCell>
        <mxCell id="SHHEqdREplzzyGLVImKM-27" value="&lt;div&gt;.compress()&lt;/div&gt;" style="rounded=0;whiteSpace=wrap;html=1;" vertex="1" parent="1">
          <mxGeometry x="930" y="-940" width="120" height="60" as="geometry" />
        </mxCell>
        <mxCell id="SHHEqdREplzzyGLVImKM-28" value="Data" style="ellipse;whiteSpace=wrap;html=1;" vertex="1" parent="1">
          <mxGeometry x="1220" y="-550" width="140" height="80" as="geometry" />
        </mxCell>
        <mxCell id="SHHEqdREplzzyGLVImKM-29" value="" style="endArrow=classic;html=1;rounded=0;" edge="1" parent="1" source="SHHEqdREplzzyGLVImKM-28" target="SHHEqdREplzzyGLVImKM-27">
          <mxGeometry width="50" height="50" relative="1" as="geometry">
            <mxPoint x="825.2702743150212" y="-499.9997256849788" as="sourcePoint" />
            <mxPoint x="650" y="-495.27" as="targetPoint" />
          </mxGeometry>
        </mxCell>
        <mxCell id="SHHEqdREplzzyGLVImKM-30" value="" style="endArrow=classic;html=1;rounded=0;" edge="1" parent="1" source="SHHEqdREplzzyGLVImKM-27" target="SHHEqdREplzzyGLVImKM-31">
          <mxGeometry width="50" height="50" relative="1" as="geometry">
            <mxPoint x="600" y="-445.27" as="sourcePoint" />
            <mxPoint x="820" y="-865.27" as="targetPoint" />
          </mxGeometry>
        </mxCell>
        <mxCell id="SHHEqdREplzzyGLVImKM-31" value="Compressed Data" style="ellipse;whiteSpace=wrap;html=1;" vertex="1" parent="1">
          <mxGeometry x="1210" y="-950" width="120" height="80" as="geometry" />
        </mxCell>
        <mxCell id="SHHEqdREplzzyGLVImKM-32" value="&lt;div&gt;.decompress()&lt;/div&gt;" style="rounded=0;whiteSpace=wrap;html=1;" vertex="1" parent="1">
          <mxGeometry x="400" y="-715.27" width="120" height="60" as="geometry" />
        </mxCell>
        <mxCell id="SHHEqdREplzzyGLVImKM-33" value="" style="endArrow=classic;html=1;rounded=0;" edge="1" parent="1" source="SHHEqdREplzzyGLVImKM-25">
          <mxGeometry width="50" height="50" relative="1" as="geometry">
            <mxPoint x="400" y="-540" as="sourcePoint" />
            <mxPoint x="450" y="-660" as="targetPoint" />
          </mxGeometry>
        </mxCell>
        <mxCell id="SHHEqdREplzzyGLVImKM-34" value="Compressed Data" style="ellipse;whiteSpace=wrap;html=1;" vertex="1" parent="1">
          <mxGeometry x="250" y="-900" width="120" height="80" as="geometry" />
        </mxCell>
        <mxCell id="SHHEqdREplzzyGLVImKM-38" value="" style="endArrow=classic;html=1;rounded=0;" edge="1" parent="1" source="SHHEqdREplzzyGLVImKM-34" target="SHHEqdREplzzyGLVImKM-32">
          <mxGeometry width="50" height="50" relative="1" as="geometry">
            <mxPoint x="600" y="-495.27" as="sourcePoint" />
            <mxPoint x="650" y="-545.27" as="targetPoint" />
          </mxGeometry>
        </mxCell>
        <mxCell id="SHHEqdREplzzyGLVImKM-39" value="" style="endArrow=classic;html=1;rounded=0;" edge="1" parent="1" source="SHHEqdREplzzyGLVImKM-32" target="SHHEqdREplzzyGLVImKM-40">
          <mxGeometry width="50" height="50" relative="1" as="geometry">
            <mxPoint x="600" y="-595.27" as="sourcePoint" />
            <mxPoint x="418.66296163652487" y="-875.4203764719855" as="targetPoint" />
          </mxGeometry>
        </mxCell>
        <mxCell id="SHHEqdREplzzyGLVImKM-40" value="Decompressed Data" style="ellipse;whiteSpace=wrap;html=1;" vertex="1" parent="1">
          <mxGeometry x="490" y="-950" width="200" height="80" as="geometry" />
        </mxCell>
        <mxCell id="SHHEqdREplzzyGLVImKM-42" value="&lt;div&gt;.auxiliaryMethod1()&lt;/div&gt;" style="rounded=0;whiteSpace=wrap;html=1;" vertex="1" parent="1">
          <mxGeometry x="-120" y="-670" width="120" height="60" as="geometry" />
        </mxCell>
        <mxCell id="SHHEqdREplzzyGLVImKM-45" value="" style="endArrow=classic;html=1;rounded=0;" edge="1" parent="1" source="SHHEqdREplzzyGLVImKM-25" target="SHHEqdREplzzyGLVImKM-42">
          <mxGeometry width="50" height="50" relative="1" as="geometry">
            <mxPoint x="400" y="-590" as="sourcePoint" />
            <mxPoint x="450" y="-640" as="targetPoint" />
          </mxGeometry>
        </mxCell>
        <mxCell id="SHHEqdREplzzyGLVImKM-46" value="Intermediate Input" style="ellipse;whiteSpace=wrap;html=1;" vertex="1" parent="1">
          <mxGeometry x="-220" y="-530" width="120" height="80" as="geometry" />
        </mxCell>
        <mxCell id="SHHEqdREplzzyGLVImKM-47" value="" style="endArrow=classic;html=1;rounded=0;" edge="1" parent="1" source="SHHEqdREplzzyGLVImKM-46" target="SHHEqdREplzzyGLVImKM-42">
          <mxGeometry width="50" height="50" relative="1" as="geometry">
            <mxPoint x="-140" y="-530" as="sourcePoint" />
            <mxPoint x="-90" y="-580" as="targetPoint" />
          </mxGeometry>
        </mxCell>
        <mxCell id="SHHEqdREplzzyGLVImKM-48" value="Intermediate Output" style="ellipse;whiteSpace=wrap;html=1;" vertex="1" parent="1">
          <mxGeometry x="-260" y="-860" width="170" height="80" as="geometry" />
        </mxCell>
        <mxCell id="SHHEqdREplzzyGLVImKM-49" value="" style="endArrow=classic;html=1;rounded=0;" edge="1" parent="1" source="SHHEqdREplzzyGLVImKM-42" target="SHHEqdREplzzyGLVImKM-48">
          <mxGeometry width="50" height="50" relative="1" as="geometry">
            <mxPoint x="400" y="-590" as="sourcePoint" />
            <mxPoint x="450" y="-640" as="targetPoint" />
          </mxGeometry>
        </mxCell>
        <mxCell id="SHHEqdREplzzyGLVImKM-50" value="&lt;div&gt;.auxiliaryField1&lt;/div&gt;" style="shape=parallelogram;perimeter=parallelogramPerimeter;whiteSpace=wrap;html=1;fixedSize=1;" vertex="1" parent="1">
          <mxGeometry x="10" y="-380" width="120" height="60" as="geometry" />
        </mxCell>
        <mxCell id="SHHEqdREplzzyGLVImKM-51" value="" style="endArrow=classic;html=1;rounded=0;" edge="1" parent="1" source="SHHEqdREplzzyGLVImKM-25" target="SHHEqdREplzzyGLVImKM-50">
          <mxGeometry width="50" height="50" relative="1" as="geometry">
            <mxPoint x="400" y="-390" as="sourcePoint" />
            <mxPoint x="450" y="-440" as="targetPoint" />
          </mxGeometry>
        </mxCell>
        <mxCell id="SHHEqdREplzzyGLVImKM-53" value="" style="endArrow=classic;startArrow=classic;html=1;rounded=0;" edge="1" parent="1" source="SHHEqdREplzzyGLVImKM-42" target="SHHEqdREplzzyGLVImKM-50">
          <mxGeometry width="50" height="50" relative="1" as="geometry">
            <mxPoint x="400" y="-390" as="sourcePoint" />
            <mxPoint x="450" y="-440" as="targetPoint" />
          </mxGeometry>
        </mxCell>
        <mxCell id="SHHEqdREplzzyGLVImKM-54" value="" style="shape=flexArrow;endArrow=classic;html=1;rounded=0;" edge="1" parent="1" source="SHHEqdREplzzyGLVImKM-25" target="SHHEqdREplzzyGLVImKM-56">
          <mxGeometry width="50" height="50" relative="1" as="geometry">
            <mxPoint x="220" y="-350" as="sourcePoint" />
            <mxPoint x="20.68965517241395" y="-1240" as="targetPoint" />
          </mxGeometry>
        </mxCell>
        <mxCell id="SHHEqdREplzzyGLVImKM-56" value="Algorithm_1_Modification" style="rounded=1;whiteSpace=wrap;html=1;" vertex="1" parent="1">
          <mxGeometry x="-100" y="-1300" width="190" height="60" as="geometry" />
        </mxCell>
        <mxCell id="SHHEqdREplzzyGLVImKM-58" value="" style="endArrow=classic;html=1;rounded=0;" edge="1" parent="1" source="SHHEqdREplzzyGLVImKM-56" target="SHHEqdREplzzyGLVImKM-59">
          <mxGeometry width="50" height="50" relative="1" as="geometry">
            <mxPoint x="18.451389150676732" y="-1529.9999999999998" as="sourcePoint" />
            <mxPoint x="120" y="-1760" as="targetPoint" />
          </mxGeometry>
        </mxCell>
        <mxCell id="SHHEqdREplzzyGLVImKM-59" value="&lt;div&gt;.compress()&lt;/div&gt;" style="rounded=0;whiteSpace=wrap;html=1;" vertex="1" parent="1">
          <mxGeometry x="780" y="-1910" width="120" height="60" as="geometry" />
        </mxCell>
        <mxCell id="SHHEqdREplzzyGLVImKM-60" value="Data" style="ellipse;whiteSpace=wrap;html=1;" vertex="1" parent="1">
          <mxGeometry x="660" y="-1670" width="140" height="80" as="geometry" />
        </mxCell>
        <mxCell id="SHHEqdREplzzyGLVImKM-61" value="" style="endArrow=classic;html=1;rounded=0;" edge="1" parent="1" source="SHHEqdREplzzyGLVImKM-60" target="SHHEqdREplzzyGLVImKM-59">
          <mxGeometry width="50" height="50" relative="1" as="geometry">
            <mxPoint x="485.2702743150212" y="-1599.9997256849788" as="sourcePoint" />
            <mxPoint x="310" y="-1595.27" as="targetPoint" />
          </mxGeometry>
        </mxCell>
        <mxCell id="SHHEqdREplzzyGLVImKM-62" value="" style="endArrow=classic;html=1;rounded=0;" edge="1" parent="1" source="SHHEqdREplzzyGLVImKM-59" target="SHHEqdREplzzyGLVImKM-63">
          <mxGeometry width="50" height="50" relative="1" as="geometry">
            <mxPoint x="260" y="-1545.27" as="sourcePoint" />
            <mxPoint x="480" y="-1965.27" as="targetPoint" />
          </mxGeometry>
        </mxCell>
        <mxCell id="SHHEqdREplzzyGLVImKM-63" value="Compressed Data" style="ellipse;whiteSpace=wrap;html=1;" vertex="1" parent="1">
          <mxGeometry x="580" y="-2110" width="120" height="80" as="geometry" />
        </mxCell>
        <mxCell id="SHHEqdREplzzyGLVImKM-64" value="&lt;div&gt;.decompress()&lt;/div&gt;" style="rounded=0;whiteSpace=wrap;html=1;" vertex="1" parent="1">
          <mxGeometry x="305" y="-1370" width="120" height="60" as="geometry" />
        </mxCell>
        <mxCell id="SHHEqdREplzzyGLVImKM-65" value="" style="endArrow=classic;html=1;rounded=0;" edge="1" parent="1" source="SHHEqdREplzzyGLVImKM-56" target="SHHEqdREplzzyGLVImKM-64">
          <mxGeometry width="50" height="50" relative="1" as="geometry">
            <mxPoint x="-10" y="-1310" as="sourcePoint" />
            <mxPoint x="110" y="-1690" as="targetPoint" />
          </mxGeometry>
        </mxCell>
        <mxCell id="SHHEqdREplzzyGLVImKM-66" value="Compressed Data" style="ellipse;whiteSpace=wrap;html=1;" vertex="1" parent="1">
          <mxGeometry x="410" y="-1500" width="120" height="80" as="geometry" />
        </mxCell>
        <mxCell id="SHHEqdREplzzyGLVImKM-67" value="" style="endArrow=classic;html=1;rounded=0;" edge="1" parent="1" source="SHHEqdREplzzyGLVImKM-66" target="SHHEqdREplzzyGLVImKM-64">
          <mxGeometry width="50" height="50" relative="1" as="geometry">
            <mxPoint x="260" y="-1595.27" as="sourcePoint" />
            <mxPoint x="310" y="-1645.27" as="targetPoint" />
          </mxGeometry>
        </mxCell>
        <mxCell id="SHHEqdREplzzyGLVImKM-68" value="" style="endArrow=classic;html=1;rounded=0;" edge="1" parent="1" source="SHHEqdREplzzyGLVImKM-64" target="SHHEqdREplzzyGLVImKM-69">
          <mxGeometry width="50" height="50" relative="1" as="geometry">
            <mxPoint x="260" y="-1695.27" as="sourcePoint" />
            <mxPoint x="78.66296163652487" y="-1975.4203764719855" as="targetPoint" />
          </mxGeometry>
        </mxCell>
        <mxCell id="SHHEqdREplzzyGLVImKM-69" value="Decompressed Data" style="ellipse;whiteSpace=wrap;html=1;" vertex="1" parent="1">
          <mxGeometry x="700" y="-1390" width="200" height="80" as="geometry" />
        </mxCell>
        <mxCell id="SHHEqdREplzzyGLVImKM-70" value="&lt;div&gt;.auxiliaryMethod2()&lt;/div&gt;" style="rounded=0;whiteSpace=wrap;html=1;" vertex="1" parent="1">
          <mxGeometry x="-180" y="-1830" width="120" height="60" as="geometry" />
        </mxCell>
        <mxCell id="SHHEqdREplzzyGLVImKM-71" value="" style="endArrow=classic;html=1;rounded=0;" edge="1" parent="1" source="SHHEqdREplzzyGLVImKM-56" target="SHHEqdREplzzyGLVImKM-70">
          <mxGeometry width="50" height="50" relative="1" as="geometry">
            <mxPoint x="-67.5" y="-1529.9999999999998" as="sourcePoint" />
            <mxPoint x="110" y="-1740" as="targetPoint" />
          </mxGeometry>
        </mxCell>
        <mxCell id="SHHEqdREplzzyGLVImKM-72" value="Intermediate Input" style="ellipse;whiteSpace=wrap;html=1;" vertex="1" parent="1">
          <mxGeometry x="-560" y="-1630" width="120" height="80" as="geometry" />
        </mxCell>
        <mxCell id="SHHEqdREplzzyGLVImKM-73" value="" style="endArrow=classic;html=1;rounded=0;" edge="1" parent="1" source="SHHEqdREplzzyGLVImKM-72" target="SHHEqdREplzzyGLVImKM-70">
          <mxGeometry width="50" height="50" relative="1" as="geometry">
            <mxPoint x="-480" y="-1630" as="sourcePoint" />
            <mxPoint x="-430" y="-1680" as="targetPoint" />
          </mxGeometry>
        </mxCell>
        <mxCell id="SHHEqdREplzzyGLVImKM-74" value="Intermediate Output" style="ellipse;whiteSpace=wrap;html=1;" vertex="1" parent="1">
          <mxGeometry x="-600" y="-1960" width="170" height="80" as="geometry" />
        </mxCell>
        <mxCell id="SHHEqdREplzzyGLVImKM-75" value="" style="endArrow=classic;html=1;rounded=0;" edge="1" parent="1" source="SHHEqdREplzzyGLVImKM-70" target="SHHEqdREplzzyGLVImKM-74">
          <mxGeometry width="50" height="50" relative="1" as="geometry">
            <mxPoint x="60" y="-1690" as="sourcePoint" />
            <mxPoint x="110" y="-1740" as="targetPoint" />
          </mxGeometry>
        </mxCell>
        <mxCell id="SHHEqdREplzzyGLVImKM-76" value="&lt;div&gt;.auxiliaryField2&lt;/div&gt;" style="shape=parallelogram;perimeter=parallelogramPerimeter;whiteSpace=wrap;html=1;fixedSize=1;" vertex="1" parent="1">
          <mxGeometry x="-330" y="-1480" width="120" height="60" as="geometry" />
        </mxCell>
        <mxCell id="SHHEqdREplzzyGLVImKM-77" value="" style="endArrow=classic;html=1;rounded=0;" edge="1" parent="1" source="SHHEqdREplzzyGLVImKM-56" target="SHHEqdREplzzyGLVImKM-76">
          <mxGeometry width="50" height="50" relative="1" as="geometry">
            <mxPoint x="-80" y="-1487.9999999999995" as="sourcePoint" />
            <mxPoint x="110" y="-1540" as="targetPoint" />
          </mxGeometry>
        </mxCell>
        <mxCell id="SHHEqdREplzzyGLVImKM-78" value="" style="endArrow=classic;startArrow=classic;html=1;rounded=0;" edge="1" parent="1" source="SHHEqdREplzzyGLVImKM-70" target="SHHEqdREplzzyGLVImKM-76">
          <mxGeometry width="50" height="50" relative="1" as="geometry">
            <mxPoint x="60" y="-1490" as="sourcePoint" />
            <mxPoint x="110" y="-1540" as="targetPoint" />
          </mxGeometry>
        </mxCell>
        <mxCell id="SHHEqdREplzzyGLVImKM-81" value="" style="endArrow=classic;html=1;rounded=0;exitX=0.5;exitY=1;exitDx=0;exitDy=0;" edge="1" parent="1" source="SHHEqdREplzzyGLVImKM-64" target="SHHEqdREplzzyGLVImKM-32">
          <mxGeometry width="50" height="50" relative="1" as="geometry">
            <mxPoint x="430" y="-870" as="sourcePoint" />
            <mxPoint x="480" y="-920" as="targetPoint" />
          </mxGeometry>
        </mxCell>
        <mxCell id="SHHEqdREplzzyGLVImKM-82" value="" style="endArrow=classic;html=1;rounded=0;" edge="1" parent="1" source="SHHEqdREplzzyGLVImKM-59" target="SHHEqdREplzzyGLVImKM-27">
          <mxGeometry width="50" height="50" relative="1" as="geometry">
            <mxPoint x="470" y="-1400" as="sourcePoint" />
            <mxPoint x="480" y="-1390" as="targetPoint" />
          </mxGeometry>
        </mxCell>
      </root>
    </mxGraphModel>
  </diagram>
</mxfile>
